<?xml version="1.0" encoding="UTF-8"?>
<svg id="Layer_1" data-name="Layer 1" xmlns="http://www.w3.org/2000/svg" viewBox="0 0 792 225">
  <defs>
    <style>
      .cls-1 {
        fill: #23824b;
      }
    </style>
  </defs>
  <g>
    <path class="cls-1" d="m154.21,144.93h-9.69c-18.61,0-33.76-15.14-33.76-33.76s15.14-33.76,33.76-33.76h9.69v-37.43h-10.97c-39.25,0-71.18,31.93-71.18,71.18s31.93,71.18,71.18,71.18h10.97v-37.43Z"/>
    <path class="cls-1" d="m207.3,39.99h-39.05v37.43h37.77c18.61,0,33.76,15.14,33.76,33.76s-15.14,33.76-33.76,33.76h-37.77v37.43h39.05c39.25,0,71.18-31.93,71.18-71.18s-31.93-71.18-71.18-71.18Z"/>
  </g>
  <g>
    <path class="cls-1" d="m308.02,79.02c0-13.26,10.59-23.64,24.4-23.64,7.83,0,14.62,3.34,19.04,8.64l-7.66,5.99c-2.65-3.31-6.77-5.3-11.4-5.3-7.99,0-14.47,5.93-14.47,14.3s6.48,14.3,14.47,14.3c4.71,0,8.89-2.06,11.53-5.46l7.78,5.86c-4.41,5.45-11.31,8.89-19.28,8.89-13.82,0-24.4-10.32-24.4-23.57Z"/>
    <path class="cls-1" d="m357.51,56.25h9.98v17.07h21.51v-17.07h9.98v45.44h-9.98l-.11-19.4h-21.4v19.4h-9.98v-45.44Z"/>
    <path class="cls-1" d="m427.64,54.28l26.06,47.39h-10.69l-4.6-8.57h-21.69l-4.57,8.57h-10.9l26.4-47.39Zm6.33,30.57l-6.44-12-6.4,12h12.85Z"/>
    <path class="cls-1" d="m483.4,101.69l-17.43-19.02v19.02h-9.98v-45.44h21.64c10.52,0,17.15,5.35,17.15,14.47s-5.37,13.53-15.21,13.86l17.1,17.11h-13.28Zm-17.43-25.37h12.46c3.77,0,6.17-1.87,6.17-5.6s-2.4-5.56-6.17-5.56h-12.46v11.15Z"/>
    <path class="cls-1" d="m511.52,65.32h-14.44l-.06-9.07h38.75v9.07h-14.43v36.37h-9.83v-36.37Z"/>
    <path class="cls-1" d="m536.07,56.25h10.99l10.79,25.76,12.5-27.27,12.48,27.27,11.02-25.76h10.83l-21.93,47.52-12.4-28.7-12.41,28.7-21.87-47.52Z"/>
    <path class="cls-1" d="m606.93,56.25h35.86v9.06h-25.93v7.95l18.21.04v8.77h-18.21v10.54h25.99v9.08h-35.92v-45.44Z"/>
    <path class="cls-1" d="m648.96,56.25h9.98l-.06,36.37h23v9.07h-32.93v-45.44Z"/>
    <path class="cls-1" d="m687.02,56.25h9.98l-.06,36.37h23v9.07h-32.93v-45.44Z"/>
    <path class="cls-1" d="m310.65,118.25l15.45-.08c16.32-.09,26.53,9.62,26.53,22.87s-10.21,22.65-26.53,22.65h-15.45v-45.44Zm15.42,36.36c11.47-.04,16.6-5.19,16.6-13.56s-5.12-13.76-16.6-13.86l-5.5-.05v27.49l5.5-.02Z"/>
    <path class="cls-1" d="m359.85,118.25h9.98v45.44h-9.98v-45.44Z"/>
    <path class="cls-1" d="m377.1,141.02c0-13.26,10.59-23.64,24.4-23.64,7.83,0,14.62,3.33,19.04,8.64l-7.66,5.99c-2.65-3.31-6.77-5.3-11.4-5.3-7.99,0-14.47,5.93-14.47,14.3s6.48,14.3,14.47,14.3c4.7,0,8.87-2.33,11.02-5.16v-9.14h9.98v12.33c-4.52,6.58-12.25,11.26-20.97,11.26-13.82,0-24.4-10.32-24.4-23.57Z"/>
    <path class="cls-1" d="m430.07,118.25h9.98v45.44h-9.98v-45.44Z"/>
    <path class="cls-1" d="m460.4,127.32h-14.44l-.06-9.07h38.75v9.07h-14.43v36.37h-9.83v-36.37Z"/>
    <path class="cls-1" d="m505.03,116.28l26.06,47.39h-10.69l-4.6-8.57h-21.69l-4.57,8.57h-10.9l26.4-47.39Zm6.33,30.58l-6.44-12-6.4,12h12.85Z"/>
    <path class="cls-1" d="m534.08,118.25h9.98l-.06,36.37h23v9.07h-32.93v-45.44Z"/>
  </g>
</svg>